<?xml version="1.0" encoding="UTF-8" standalone="no"?>
<!DOCTYPE svg PUBLIC "-//W3C//DTD SVG 20010904//EN" "http://www.w3.org/TR/2001/REC-SVG-20010904/DTD/svg10.dtd">
<svg xmlns="http://www.w3.org/2000/svg" xmlns:svg="http://www.w3.org/2000/svg" xmlns:xlink="http://www.w3.org/1999/xlink" version="1.0" width="256px" height="256px" viewBox="0 0 256 256">
  <title>Euphorbia LaTeX editor</title>
  <desc>euphorbia trigona</desc>
  <defs id="defs1">
    <filter id="filter1" x="-0.336" y="-0.073043481" width="1.6720001" height="1.1460871" color-interpolation-filters="sRGB">
      <feGaussianBlur id="feGaussianBlur1" stdDeviation="7" />
    </filter>
    <filter id="filter2" x="-0.28349999" y="-0.049304347" width="1.567" height="1.0986087" color-interpolation-filters="sRGB">
      <feGaussianBlur id="feGaussianBlur2" stdDeviation="4.725" />
    </filter>
    <path id="path1" d="m 60,256 10,-30 -10,-10 10,0 10,-30 -10,-10 10,0 10,-40 -10,-10 10,0 10,-40 -10,-10 10,0 10,-20 -10,-10 10,0 10,-10 0,-10 10,10 5,0 5,5 5,-5 5,0 10,-10 0,10 10,20 10,0 -10,10 0,30 10,0 -10,10 -10,40 10,0 -10,10 -10,40 10,0 -10,10 -10,40 10,0 -10,10" />
  </defs>
  <clipPath id="clippath1">
    <use id="use0" x="0" y="0" width="256" height="256" xlink:href="#path1" />
  </clipPath>
  <g id="layer1">
    <use id="use01" style="fill:#006400;fill-opacity:1;fill-rule:nonzero;stroke:none" x="0" y="0" width="256" height="256" xlink:href="#path1" />
    <path id="path2" d="M 130,40 120,100 80,270" clip-path="url(#clippath1)" style="fill:none;stroke:#96ff00;stroke-width:10;stroke-linecap:round;stroke-linejoin:round;stroke-miterlimit:4;stroke-opacity:1;stroke-dasharray:none;filter:url(#filter1)" />
    <path id="path3" d="m 150,40 10,30 -10,60 -20,90 -10,50" clip-path="url(#clippath1)" style="fill:none;stroke:#96ff00;stroke-width:5;stroke-linecap:round;stroke-linejoin:round;stroke-miterlimit:4;stroke-opacity:1;stroke-dasharray:none;filter:url(#filter2)" />
    <path id="path4" d="m 140,41 0,5 10,10 -10,0 0,30 10,10 -10,0 -10,30 10,10 -10,0 -10,40 10,10 -10,0 -10,40 10,10 -10,0 -10,20" style="fill:none;stroke:#000000;stroke-width:5;stroke-linecap:round;stroke-linejoin:round;stroke-miterlimit:4;stroke-opacity:1;stroke-dasharray:none" />
    <use id="use02" style="fill:none;stroke:#000000;stroke-width:5;stroke-linecap:round;stroke-linejoin:round;stroke-miterlimit:4;stroke-opacity:1;stroke-dasharray:none" x="0" y="0" width="256" height="256" xlink:href="#path1" />
    <path id="path5" d="M 60,216 C 50,206 20,206 35,191 c 10,-10 15,15 25,25 z" style="fill:#ff2040;fill-opacity:1;stroke:#000000;stroke-width:3;stroke-linecap:round;stroke-linejoin:round;stroke-miterlimit:4;stroke-opacity:1;stroke-dasharray:none" />
    <use id="use03" transform="translate(10,-40)" x="0" y="0" width="256" height="256" xlink:href="#path5" />
    <use id="use04" transform="translate(20,-90)" x="0" y="0" width="256" height="256" xlink:href="#path5" />
    <use id="use05" transform="translate(30,-140)" x="0" y="0" width="256" height="256" xlink:href="#path5" />
    <use id="use06" transform="translate(40,-170)" x="0" y="0" width="256" height="256" xlink:href="#path5" />
    <use id="use07" transform="matrix(-1,0,0,1,241,-160)" x="0" y="0" width="256" height="256" xlink:href="#path5" />
    <use id="use08" transform="translate(0,40)" x="0" y="0" width="256" height="256" xlink:href="#use07" />
    <use id="use09" transform="translate(-10,90)" x="0" y="0" width="256" height="256" xlink:href="#use07" />
    <use id="use10" transform="translate(-20,140)" x="0" y="0" width="256" height="256" xlink:href="#use07" />
    <use id="use11" transform="translate(-30,190)" x="0" y="0" width="256" height="256" xlink:href="#use07" />
    <path id="path6" d="M 119,26 C 109,16 90,16 100,6 c 10,-10 9,10 19,20 z" style="fill:#ff2040;fill-opacity:1;stroke:#000000;stroke-width:3;stroke-linecap:round;stroke-linejoin:round;stroke-miterlimit:4;stroke-opacity:1;stroke-dasharray:none" />
    <path id="path7" d="M 162,26 C 172,16 190,16 180,6 175,1 172,16 162,26 z" style="fill:#ff2040;fill-opacity:1;stroke:#000000;stroke-width:3;stroke-linecap:round;stroke-linejoin:round;stroke-miterlimit:4;stroke-opacity:1;stroke-dasharray:none" />
    <use id="use3652" transform="translate(-10,30)" x="0" y="0" width="256" height="256" xlink:href="#path7" />
    <path id="path8" d="m 152,96 c 10,-10 28,-20 25,-25 -17,-10 -15,15 -25,25 z" style="fill:#ff2040;fill-opacity:1;stroke:#000000;stroke-width:3;stroke-linecap:round;stroke-linejoin:round;stroke-miterlimit:4;stroke-opacity:1;stroke-dasharray:none" />
    <use id="use12" transform="translate(-10,40)" x="0" y="0" width="256" height="256" xlink:href="#path8" />
    <use id="use13" transform="translate(-20,90)" x="0" y="0" width="256" height="256" xlink:href="#path8" />
    <use id="use14" transform="translate(-30,140)" x="0" y="0" width="256" height="256" xlink:href="#path8" />
  </g>
</svg>
